<svg width="32" height="32" viewBox="0 0 32 32" fill="none" xmlns="http://www.w3.org/2000/svg">
<path d="M16 31C7.73125 31 1 24.2687 1 16C1 7.73125 7.73125 1 16 1C24.2687 1 31 7.73125 31 16C31 24.2687 24.2687 31 16 31Z" fill="#2375FF"/>
<path d="M14.3673 19.9183C14.2041 19.9183 14.0408 19.853 13.9102 19.7224L10.6449 16.4571C10.3837 16.1959 10.3837 15.7877 10.6449 15.5265C10.9061 15.2653 11.3143 15.2653 11.5755 15.5265L14.8408 18.7918C15.102 19.053 15.102 19.4612 14.8408 19.7224C14.6939 19.853 14.5306 19.9183 14.3673 19.9183Z" fill="white"/>
<path d="M14.3674 19.9185C14.2042 19.9185 14.0409 19.8532 13.9103 19.7226C13.649 19.4613 13.649 19.0532 13.9103 18.792L20.4409 12.2613C20.7021 12.0001 21.1103 12.0001 21.3715 12.2613C21.6327 12.5226 21.6327 12.9307 21.3715 13.192L14.8409 19.7226C14.6939 19.8532 14.5307 19.9185 14.3674 19.9185Z" fill="white"/>
</svg>
